<?xml version="1.0" encoding="UTF-8"?>
<svg xmlns="http://www.w3.org/2000/svg" width="64" height="64" viewBox="0 0 64 64" preserveAspectRatio="xMidYMid meet">
  <title>Report Sources</title>
  <rect x="2" y="2" width="60" height="60" rx="12" ry="12" fill="#FFFFFF" stroke="#000000" stroke-width="2"/>
  <path transform="translate(7.381,48.500) scale(0.03968,-0.03968)" fill="#E32227" d="M300 714Q576 714 576 503Q576 373 469 311L663 0H431L299 260H270V0H66V714ZM301 568H270V405H297Q314 405 331.0 413.5Q348 422 359.5 441.5Q371 461 371 494Q371 529 355.0 548.5Q339 568 301 568Z M1173 217Q1173 159 1146.5 107.0Q1120 55 1060.0 22.5Q1000 -10 901 -10Q849 -10 813.5 -5.5Q778 -1 749.0 9.0Q720 19 685 35V207Q743 178 801.0 162.5Q859 147 901 147Q934 147 951.0 162.0Q968 177 968 200Q968 219 959.0 232.0Q950 245 925.0 259.0Q900 273 852 293Q792 318 756.0 346.0Q720 374 704.0 414.0Q688 454 688 515Q688 584 722.5 630.5Q757 677 817.0 700.5Q877 724 955 724Q1029 724 1084.5 708.5Q1140 693 1175 673L1114 524Q1074 545 1029.0 557.5Q984 570 949 570Q917 570 903.5 557.0Q890 544 890 524Q890 507 901.5 494.0Q913 481 942.5 465.5Q972 450 1025 424Q1073 402 1106.0 375.0Q1139 348 1156.0 310.5Q1173 273 1173 217Z"/>
</svg>
